#!OML:ASF H:\Male1\Project 1\Capture day 1\Session 1\Male1.ASF
:FULLY-SPECIFIED
:DEGREES
262
root 36.5754 16.3265 5.35176 187.567 1.57298 -173.759
lowerback 7.27428 -1.83252 -7.68145
upperback 4.91951 -1.61833 -8.00577
thorax 1.10579 -0.349588 -3.93277
lowerneck -10.1547 5.16475 3.70438
upperneck 2.87216 6.46782 5.60799
head 2.61537 3.60702 1.5284
rclavicle -3.49861e-014 -1.52667e-013
rhumerus -67.7298 20.6912 -92.635
rradius 93.8107
rwrist -37.192
rhand -35.1003 9.20886
rfingers 7.12502
rthumb -8.24161 -20.6104
lclavicle -3.49861e-014 -1.52667e-013
lhumerus -38.6326 -5.71917 79.1563
lradius 92.7216
lwrist 22.106
lhand -35.106 4.91857
lfingers 7.12502
lthumb -8.24711 34.7376
rfemur -18.7211 -9.27256 30.4941
rtibia 41.5399
rfoot -0.186929 -23.1068
rtoes -25.659
lfemur -19.7233 -21.2049 -3.62566
ltibia 50.6178
lfoot -5.121 26.4064
ltoes 22.348
263
root 36.8786 16.6385 5.2707 188.925 0.682888 -173.23
lowerback 6.08651 -1.96151 -6.97333
upperback 4.73287 -1.68355 -8.05126
thorax 1.53389 -0.396434 -4.38801
lowerneck -10.001 5.10314 3.85276
upperneck 2.62671 6.39981 5.48584
head 2.51258 3.56404 1.44651
rclavicle 6.36111e-015 3.49861e-014
rhumerus -69.2948 19.728 -93.1625
rradius 93.3097
rwrist -37.3701
rhand -35.5544 9.99879
rfingers 7.12502
rthumb -8.67985 -19.8028
lclavicle 6.36111e-015 3.49861e-014
lhumerus -39.5894 -5.40914 77.9424
lradius 93.6587
lwrist 20
lhand -35.1563 6.49602
lfingers 7.12502
lthumb -8.29558 36.3131
rfemur -20.3709 -9.49447 31.0772
rtibia 41.527
rfoot 4.67411 -20.8451
rtoes -26.7839
lfemur -22.4483 -21.533 -3.05481
ltibia 51.296
lfoot -7.94499 26.3889
ltoes 29.1258
264
root 37.1798 16.9076 5.2105 190.101 -0.21531 -173.769
lowerback 5.34745 -2.1165 -7.22717
upperback 4.65581 -1.78564 -8.21558
thorax 1.87291 -0.444278 -4.43226
lowerneck -10.2551 4.97648 3.53262
upperneck 2.38281 6.27295 5.6714
head 2.46272 3.50589 1.55646
rclavicle 4.45278e-014 1.36764e-013
rhumerus -70.1897 18.9249 -93.5001
rradius 92.4332
rwrist -38.3911
rhand -36.7251 9.62509
rfingers 7.12502
rthumb -9.80947 -20.1264
lclavicle 4.45278e-014 1.36764e-013
lhumerus -40.4279 -5.1735 76.5781
lradius 94.3497
lwrist 19.0134
lhand -35.1488 7.93267
lfingers 7.12502
lthumb -8.28841 37.7501
rfemur -22.456 -9.84702 30.3769
rtibia 42.6937
rfoot 6.19884 -17.6327
rtoes -28.1181
lfemur -25.4176 -21.827 -4.07371
ltibia 52.4276
lfoot -6.335 23.4986
ltoes 24.2755
265
root 37.4491 17.1135 5.17742 190.881 -0.803912 -174.699
lowerback 5.25376 -0.638215 -7.38745
upperback 4.90175 -2.31349 -8.26529
thorax 2.0433 -1.75454 -4.41444
lowerneck -10.3207 4.85542 3.1346
upperneck 1.98938 6.16895 5.38602
head 2.33951 3.42175 1.51615
rclavicle -1.27222e-014 3.18055e-015
rhumerus -70.2006 18.9462 -94.0798
rradius 90.8815
rwrist -39.9341
rhand -38.0649 8.67035
rfingers 7.12502
rthumb -11.1018 -21.016
lclavicle -1.27222e-014 3.18055e-015
lhumerus -41.3703 -4.5978 75.2733
lradius 94.6148
lwrist 18.2457
lhand -35.1277 9.49337
lfingers 7.12502
lthumb -8.26805 39.3116
rfemur -24.7074 -10.2834 28.9636
rtibia 45.0161
rfoot 3.0757 -15.8298
rtoes -24.3987
lfemur -28.1394 -22.4981 -5.77777
ltibia 53.6371
lfoot -6.47985 19.6235
ltoes 19.6586
266
root 37.7514 17.267 5.14185 190.927 -1.92389 -173.064
lowerback 5.85053 -0.781856 -5.45315
upperback 5.2245 -2.32468 -7.64658
thorax 2.00299 -1.65726 -4.8203
lowerneck -10.5251 4.70915 3.05237
upperneck 1.36783 6.02511 5.139
head 2.17444 3.33313 1.43267
rclavicle 6.67916e-014 1.39944e-013
rhumerus -69.0428 18.8283 -94.291
rradius 88.503
rwrist -39.3492
rhand -37.2035 5.92013
rfingers 7.12502
rthumb -10.271 -23.8091
lclavicle 6.67916e-014 1.39944e-013
lhumerus -42.2824 -3.47592 73.8232
lradius 94.7865
lwrist 17.6632
lhand -35.1461 11.1031
lfingers 7.12502
lthumb -8.28579 40.9206
rfemur -25.7022 -10.1685 30.4118
rtibia 46.6662
rfoot 1.59056 -16.5526
rtoes -28.5924
lfemur -30.0573 -22.0509 -4.96718
ltibia 54.2946
lfoot -4.38609 14.4217
ltoes 4.76197
267
root 37.9859 17.3622 5.14039 193.328 -2.19993 -175.186
lowerback 4.64367 -0.966511 -6.25571
upperback 4.84177 -2.54346 -8.13385
thorax 2.2797 -1.80063 -4.91741
lowerneck -10.5706 4.42953 2.78972
upperneck 0.716179 5.71969 4.68796
head 1.97394 3.14688 1.3009
rclavicle 2.54444e-014 9.85972e-014
rhumerus -67.8865 19.4048 -94.7626
rradius 86.4473
rwrist -39.5464
rhand -36.3195 3.851
rfingers 7.12502
rthumb -9.41807 -25.9186
lclavicle 2.54444e-014 9.85972e-014
lhumerus -43.2271 -2.49403 72.4826
lradius 94.3427
lwrist 16.8503
lhand -34.8822 12.904
lfingers 7.12502
lthumb -8.03103 42.7314
rfemur -30.0965 -10.4444 27.4458
rtibia 48.3066
rfoot 1.24997 -16.907
rtoes -28.8675
lfemur -34.5216 -22.2203 -7.78019
ltibia 54.0886
lfoot -3.31352 10.2831
ltoes 0.014286
